<svg xmlns="http://www.w3.org/2000/svg" width="187" height="54" fill="none"><g filter="url(#a)"><path fill="#fff" fill-rule="evenodd" d="M17 5a1 1 0 0 0-1 1v10l-7 7 7 7v10a1 1 0 0 0 1 1h160a1 1 0 0 0 1-1V6a1 1 0 0 0-1-1H17Z" clip-rule="evenodd"/><path fill="#B9B9B9" d="m16 16 .35.35.15-.14V16H16Zm-7 7-.35-.35-.36.35.36.35L9 23Zm7 7h.5v-.2l-.15-.15L16 30Zm.5-24c0-.28.22-.5.5-.5v-1c-.83 0-1.5.67-1.5 1.5h1Zm0 10V6h-1v10h1Zm-7.15 7.35 7-7-.7-.7-7 7 .7.7Zm7 6.3-7-7-.7.7 7 7 .7-.7ZM16.5 40V30h-1v10h1Zm.5.5a.5.5 0 0 1-.5-.5h-1c0 .83.67 1.5 1.5 1.5v-1Zm160 0H17v1h160v-1Zm.5-.5a.5.5 0 0 1-.5.5v1c.83 0 1.5-.67 1.5-1.5h-1Zm0-34v34h1V6h-1Zm-.5-.5c.28 0 .5.22.5.5h1c0-.83-.67-1.5-1.5-1.5v1Zm-160 0h160v-1H17v1Z"/></g><defs><filter id="a" width="186.21" height="53" x=".29" y=".5" color-interpolation-filters="sRGB" filterUnits="userSpaceOnUse"><feFlood flood-opacity="0" result="BackgroundImageFix"/><feColorMatrix in="SourceAlpha" result="hardAlpha" values="0 0 0 0 0 0 0 0 0 0 0 0 0 0 0 0 0 0 127 0"/><feOffset dy="4"/><feGaussianBlur stdDeviation="4"/><feColorMatrix values="0 0 0 0 0.7625 0 0 0 0 0.7625 0 0 0 0 0.7625 0 0 0 0.2 0"/><feBlend in2="BackgroundImageFix" result="effect1_dropShadow_13581_2525"/><feBlend in="SourceGraphic" in2="effect1_dropShadow_13581_2525" result="shape"/></filter></defs></svg>